<svg width="1200" height="630" viewBox="0 0 1200 630" fill="none" xmlns="http://www.w3.org/2000/svg">
  <!-- Background -->
  <rect width="1200" height="630" fill="#0f172a"/>
  
  <!-- Background Gradients -->
  <defs>
    <radialGradient id="grad1" cx="80%" cy="20%" r="50%">
      <stop offset="0%" style="stop-color:#1e293b;stop-opacity:0.3" />
      <stop offset="100%" style="stop-color:transparent;stop-opacity:0" />
    </radialGradient>
    <radialGradient id="grad2" cx="20%" cy="80%" r="40%">
      <stop offset="0%" style="stop-color:#334155;stop-opacity:0.2" />
      <stop offset="100%" style="stop-color:transparent;stop-opacity:0" />
    </radialGradient>
    <linearGradient id="textGrad" x1="0%" y1="0%" x2="100%" y2="0%">
      <stop offset="0%" style="stop-color:#ffffff"/>
      <stop offset="100%" style="stop-color:#e2e8f0"/>
    </linearGradient>
  </defs>
  
  <rect width="1200" height="630" fill="url(#grad1)"/>
  <rect width="1200" height="630" fill="url(#grad2)"/>
  
  <!-- Shield Icon -->
  <g transform="translate(100, 150)">
    <path d="M25 2.5L5 12.5V25C5 34.665 11.9525 43.7275 22.5 46.25C33.0475 43.7275 40 34.665 40 25V12.5L25 2.5Z" stroke="#10b981" stroke-width="2" fill="none" stroke-linecap="round" stroke-linejoin="round"/>
    <path d="M17.5 25L22.5 30L32.5 20" stroke="#10b981" stroke-width="2" fill="none" stroke-linecap="round" stroke-linejoin="round"/>
  </g>
  
  <!-- Main Title -->
  <text x="100" y="280" font-family="system-ui, -apple-system, sans-serif" font-size="64" font-weight="700" fill="url(#textGrad)">
    UK Age Verification
  </text>
  
  <!-- Subtitle -->
  <text x="100" y="340" font-family="system-ui, -apple-system, sans-serif" font-size="32" font-weight="400" fill="#94a3b8">
    Zero-Knowledge Privacy Protection
  </text>
  
  <!-- Description -->
  <text x="100" y="400" font-family="system-ui, -apple-system, sans-serif" font-size="20" font-weight="400" fill="#64748b">
    The easiest way to verify ages while protecting user privacy
  </text>
  
  <!-- Features -->
  <g transform="translate(100, 450)">
    <!-- Privacy Badge -->
    <rect x="0" y="0" width="180" height="40" rx="20" fill="#1e293b" stroke="#334155" stroke-width="1"/>
    <circle cx="20" cy="20" r="8" fill="#10b981"/>
    <path d="M16 20L19 23L24 17" stroke="#0f172a" stroke-width="1.5" fill="none" stroke-linecap="round" stroke-linejoin="round"/>
    <text x="35" y="26" font-family="system-ui, -apple-system, sans-serif" font-size="14" font-weight="500" fill="#e2e8f0">Privacy Preserving</text>
    
    <!-- Compliance Badge -->
    <rect x="200" y="0" width="160" height="40" rx="20" fill="#1e293b" stroke="#334155" stroke-width="1"/>
    <circle cx="220" cy="20" r="8" fill="#3b82f6"/>
    <circle cx="220" cy="20" r="4" fill="#0f172a"/>
    <text x="235" y="26" font-family="system-ui, -apple-system, sans-serif" font-size="14" font-weight="500" fill="#e2e8f0">Global Compliant</text>
    
    <!-- Speed Badge -->
    <rect x="380" y="0" width="170" height="40" rx="20" fill="#1e293b" stroke="#334155" stroke-width="1"/>
    <polygon points="398,12 398,28 410,20" fill="#f59e0b"/>
    <text x="415" y="26" font-family="system-ui, -apple-system, sans-serif" font-size="14" font-weight="500" fill="#e2e8f0">Instant Verification</text>
  </g>
  
  <!-- UK Flag -->
  <g transform="translate(900, 200)">
    <circle cx="50" cy="50" r="45" fill="#ffffff"/>
    <circle cx="50" cy="50" r="40" fill="#1e40af"/>
    
    <!-- Union Jack simplified -->
    <path d="M20 20 L80 80 M80 20 L20 80" stroke="#dc2626" stroke-width="4"/>
    <path d="M50 15 L50 85 M15 50 L85 50" stroke="#dc2626" stroke-width="6"/>
    <path d="M50 15 L50 85 M15 50 L85 50" stroke="#ffffff" stroke-width="4"/>
  </g>
  
  <!-- Code snippet visual -->
  <g transform="translate(650, 350)">
    <rect x="0" y="0" width="400" height="200" rx="12" fill="#1e293b" stroke="#334155" stroke-width="1"/>
    
    <!-- Code lines -->
    <rect x="20" y="20" width="60" height="8" rx="4" fill="#10b981"/>
    <rect x="90" y="20" width="40" height="8" rx="4" fill="#3b82f6"/>
    <rect x="140" y="20" width="80" height="8" rx="4" fill="#64748b"/>
    
    <rect x="20" y="40" width="120" height="8" rx="4" fill="#64748b"/>
    <rect x="150" y="40" width="60" height="8" rx="4" fill="#f59e0b"/>
    
    <rect x="20" y="60" width="40" height="8" rx="4" fill="#8b5cf6"/>
    <rect x="70" y="60" width="100" height="8" rx="4" fill="#64748b"/>
    
    <rect x="20" y="80" width="80" height="8" rx="4" fill="#64748b"/>
    
    <rect x="20" y="120" width="90" height="8" rx="4" fill="#ec4899"/>
    <rect x="120" y="120" width="50" height="8" rx="4" fill="#64748b"/>
    
    <rect x="20" y="140" width="140" height="8" rx="4" fill="#64748b"/>
    
    <rect x="20" y="160" width="70" height="8" rx="4" fill="#10b981"/>
    <rect x="100" y="160" width="90" height="8" rx="4" fill="#64748b"/>
  </g>
  
  <!-- Bottom border gradient -->
  <rect x="0" y="628" width="1200" height="2" fill="url(#textGrad)" opacity="0.3"/>
</svg> 