<svg width="851" height="200" viewBox="0 0 851 200" fill="none" xmlns="http://www.w3.org/2000/svg">
<path fill-rule="evenodd" clip-rule="evenodd" d="M1 0C0.447715 0 0 0.447714 0 0.999999V191.244L20.8186 95.921C20.9365 95.3814 21.4797 94.944 22.032 94.944H49.032C49.5843 94.944 49.9365 95.3814 49.8186 95.921L27.0877 200H62.0877L67.5355 175.056C67.6534 174.516 67.3012 174.079 66.7489 174.079H39.7489C39.1966 174.079 38.8444 173.641 38.9623 173.102L44.7233 146.723C44.8412 146.184 45.3844 145.746 45.9367 145.746H72.9367C73.489 145.746 74.0322 145.309 74.1501 144.77L85.032 94.944C85.7391 91.7066 83.6259 89.0822 80.3122 89.0822H58.3122C57.7599 89.0822 57.4078 88.6448 57.5256 88.1052L63.2866 61.727C63.4045 61.1874 63.9477 60.75 64.5 60.75H109.5C116.127 60.75 120.354 65.9989 118.94 72.4737L103.15 144.77C103.032 145.309 102.489 145.746 101.937 145.746H76.3509C75.7986 145.746 75.2554 146.184 75.1375 146.723L69.3765 173.102C69.2587 173.641 69.6109 174.079 70.1631 174.079H95.7489C96.3012 174.079 96.6534 174.516 96.5355 175.056L91.0877 200H199C199.552 200 200 199.552 200 199V1C200 0.447715 199.552 0 199 0H1ZM29.5 60.75C28.9477 60.75 28.4045 61.1874 28.2866 61.727L22.5256 88.1052C22.4078 88.6448 22.7599 89.0822 23.3122 89.0822H50.3122C50.8645 89.0822 51.4078 88.6448 51.5256 88.1052L57.2866 61.727C57.4045 61.1874 57.0523 60.75 56.5 60.75H29.5Z" fill="#0000EE"/>
<path d="M271.132 33.5293C277.766 33.5293 283.246 35.6465 287.479 39.9287C291.761 44.1611 293.878 49.6416 293.878 56.2754C293.878 56.8155 293.826 57.7448 293.727 59.0322L293.654 59.9707H277.57L277.634 58.8945C277.683 58.057 277.706 57.4357 277.706 57.0195C277.706 53.7848 276.844 51.2589 275.199 49.3477L275.19 49.3379L275.183 49.3281C273.594 47.3866 271.553 46.4268 268.974 46.4268C264.038 46.4268 259.832 48.6858 256.318 53.3857L256.317 53.3877C253.831 56.7026 252.502 61.8972 252.502 69.1494V109.086H237V34.7949H252.502V41.4502C257.696 36.1921 263.919 33.5293 271.132 33.5293ZM354.953 32.2598C365.528 32.2598 373.705 35.3791 379.307 41.7588C384.888 48.1151 387.597 57.3496 387.597 69.2939C387.597 70.1303 387.52 71.5541 387.371 73.5371L387.3 74.4766H337.335L337.29 76.0059C337.293 81.6433 339.202 86.1996 342.995 89.7598C346.799 93.2803 351.674 95.0684 357.707 95.0684C362.794 95.0683 366.154 93.4654 368.091 90.4717L368.391 90.0078H384.865L384.765 91.1152C384.24 96.8901 381.484 101.366 376.554 104.461L376.55 104.463L376.547 104.465C371.662 107.479 365.001 108.933 356.665 108.933C345.391 108.933 336.488 105.588 330.102 98.7891L330.096 98.7832C323.77 91.9436 320.673 82.4393 320.673 70.4102C320.673 60.2495 323.356 51.4498 328.757 44.0615L328.758 44.0596L328.76 44.0576C334.597 36.1547 343.392 32.2598 354.953 32.2598ZM449.705 32.0049C457.359 32.0049 463.694 33.8568 468.626 37.6445C473.618 41.3902 476.643 46.6448 477.722 53.3242L477.912 54.502H461.42L461.178 53.832C460.191 51.1062 458.757 49.1371 456.916 47.8428C455.075 46.5486 452.742 45.8701 449.854 45.8701C443.99 45.8702 439.731 47.8874 436.893 51.8291C434.01 55.8326 432.488 61.9621 432.488 70.3789C432.488 78.5102 433.986 84.6007 436.848 88.7783C439.722 92.9028 443.767 94.9629 449.109 94.9629C452.248 94.9629 454.938 93.9783 457.229 92.0088C459.519 90.039 460.804 87.6182 461.123 84.7061L461.222 83.7998H477.78L477.733 84.8613C477.423 91.8448 474.562 97.6178 469.185 102.116C463.816 106.607 457.151 108.827 449.259 108.827C439.822 108.827 432.358 106.03 427.013 100.323C423.815 96.9697 421.294 92.5668 419.424 87.1572L419.422 87.1523L419.42 87.1465C417.599 81.6848 416.689 76.0694 416.689 70.3047C416.689 59.0068 419.694 49.7735 425.79 42.7031C431.897 35.5702 439.9 32.0049 449.705 32.0049ZM629.335 31.7764C639.163 31.7764 646.463 33.8754 650.961 38.3203C655.461 42.7676 657.588 49.971 657.588 59.6572V107.333H642.087V101.343C636.225 106.173 629.433 108.598 621.745 108.598C613.683 108.598 607.104 106.542 602.113 102.331L602.109 102.327C597.152 98.1001 594.683 92.4753 594.683 85.5547C594.683 77.7599 597.698 71.5036 603.712 66.8887C609.745 62.2477 617.775 59.9805 627.698 59.9805H642.087V54.8203C642.087 51.2667 641.009 48.7657 638.999 47.123C636.95 45.4483 633.762 44.5244 629.261 44.5244C624.991 44.5244 621.655 45.2115 619.185 46.5098C616.743 47.7931 615.103 49.6948 614.222 52.249L613.985 52.9336H597.904L597.958 51.8662C598.296 45.1869 601.144 40.0913 606.506 36.7139C611.801 33.3782 619.455 31.7764 629.335 31.7764ZM535.171 79.9727C535.171 84.6553 536.439 87.9875 538.806 90.165C541.188 92.3573 544.859 93.5429 550.006 93.543H560.704V107.333H546.062C537.014 107.333 530.219 104.904 525.937 99.8281C521.688 94.7932 519.67 86.884 519.67 76.3262V0H535.171V79.9727ZM734.686 107.333H718.365V48.6914H700.734V33.041H734.686V107.333ZM833.538 31.7764C838.808 31.7764 843.095 33.5909 846.286 37.2607C849.46 40.9111 851 45.7079 851 51.5459V107.333H835.498V51.5459C835.498 48.9098 834.943 47.1213 834.006 46.0029C833.098 44.919 831.692 44.3008 829.594 44.3008C826.83 44.3008 824.861 45.3491 823.527 47.4248C822.144 49.5775 821.382 52.9363 821.382 57.6475V107.333H805.88V51.1738C805.88 48.6709 805.328 46.9832 804.402 45.9277C803.499 44.8977 802.089 44.3008 799.976 44.3008C797.229 44.3008 795.279 45.325 793.961 47.3389C792.594 49.4278 791.838 52.6904 791.838 57.2754V107.333H776.336V33.041H791.838V37.2979C796.257 33.6425 801.109 31.7765 806.375 31.7764C809.406 31.7764 811.867 32.1747 813.659 33.0654C815.268 33.8014 816.844 35.1533 818.397 37.0322C822.412 33.5124 827.485 31.7764 833.538 31.7764ZM625.614 72.9521C620.916 72.9522 617.238 74.0763 614.486 76.2305C611.809 78.3645 610.482 81.1444 610.481 84.6611C610.481 87.9305 611.552 90.5908 613.674 92.7168C615.843 94.7915 618.605 95.8495 622.042 95.8496C627.7 95.8496 632.431 94.0052 636.3 90.3252C640.165 86.6489 642.087 82.1531 642.087 76.7734V72.9521H625.614ZM354.879 46.124C349.985 46.124 345.995 47.5659 342.832 50.4033L342.829 50.4062L342.825 50.4092C339.916 52.9762 338.108 56.3797 337.433 60.6865H371.029C370.827 56.4433 369.338 53.061 366.605 50.457L366.6 50.4512L366.594 50.4463C363.692 47.5901 359.822 46.1241 354.879 46.124ZM734.686 20.1152H718.365V0H734.686V20.1152Z" fill="#0000EE"/>
<path d="M267.784 183L264.008 170.264H248.328L244.552 183H238.984L252.68 138.328H259.784L273.48 183H267.784ZM256.456 144.024H255.88L249.608 165.592H262.728L256.456 144.024ZM311.279 186.776C311.279 190.104 309.892 192.557 307.119 194.136C304.346 195.757 300.186 196.568 294.639 196.568C289.306 196.568 285.466 195.864 283.119 194.456C280.815 193.048 279.663 191.021 279.663 188.376C279.663 186.584 280.132 185.197 281.071 184.216C282.01 183.235 283.332 182.509 285.039 182.04V181.272C284.1 180.803 283.375 180.205 282.863 179.48C282.351 178.755 282.095 177.837 282.095 176.728C282.095 175.021 282.65 173.741 283.759 172.888C284.911 172.035 286.34 171.395 288.047 170.968V170.712C285.999 169.816 284.399 168.493 283.247 166.744C282.138 164.995 281.583 162.947 281.583 160.6C281.583 158.936 281.882 157.4 282.479 155.992C283.076 154.584 283.93 153.389 285.039 152.408C286.191 151.384 287.556 150.595 289.135 150.04C290.714 149.485 292.463 149.208 294.383 149.208C296.858 149.208 299.034 149.656 300.911 150.552V149.976C300.911 148.696 301.21 147.629 301.807 146.776C302.404 145.923 303.428 145.496 304.879 145.496H310.959V149.976H303.535V152.216C304.73 153.24 305.647 154.456 306.287 155.864C306.927 157.272 307.247 158.851 307.247 160.6C307.247 162.264 306.927 163.8 306.287 165.208C305.69 166.616 304.836 167.832 303.727 168.856C302.618 169.837 301.252 170.605 299.631 171.16C298.052 171.715 296.303 171.992 294.383 171.992C293.828 171.992 293.295 171.971 292.783 171.928C292.271 171.885 291.759 171.821 291.247 171.736C290.735 171.821 290.202 171.971 289.647 172.184C289.092 172.355 288.58 172.611 288.111 172.952C287.642 173.251 287.258 173.613 286.959 174.04C286.66 174.467 286.511 174.957 286.511 175.512C286.511 176.493 287.002 177.155 287.983 177.496C288.964 177.795 290.244 177.944 291.823 177.944H299.119C303.386 177.944 306.479 178.755 308.399 180.376C310.319 181.955 311.279 184.088 311.279 186.776ZM306.479 187.032C306.479 185.709 305.946 184.643 304.879 183.832C303.812 183.064 301.956 182.68 299.311 182.68H287.855C285.636 183.576 284.527 185.069 284.527 187.16C284.527 188.611 285.103 189.848 286.255 190.872C287.407 191.939 289.327 192.472 292.015 192.472H297.007C299.994 192.472 302.319 192.003 303.983 191.064C305.647 190.168 306.479 188.824 306.479 187.032ZM294.383 168.024C296.943 168.024 298.82 167.427 300.015 166.232C301.252 165.037 301.871 163.459 301.871 161.496V159.64C301.871 157.677 301.252 156.12 300.015 154.968C298.82 153.773 296.943 153.176 294.383 153.176C291.823 153.176 289.946 153.773 288.751 154.968C287.556 156.12 286.959 157.677 286.959 159.64V161.496C286.959 163.459 287.556 165.037 288.751 166.232C289.946 167.427 291.823 168.024 294.383 168.024ZM333.526 183.768C331.137 183.768 328.982 183.363 327.062 182.552C325.185 181.741 323.563 180.589 322.198 179.096C320.875 177.56 319.851 175.747 319.126 173.656C318.401 171.523 318.038 169.155 318.038 166.552C318.038 163.907 318.401 161.517 319.126 159.384C319.894 157.251 320.939 155.437 322.262 153.944C323.585 152.408 325.163 151.235 326.998 150.424C328.875 149.613 330.945 149.208 333.206 149.208C335.425 149.208 337.43 149.613 339.222 150.424C341.057 151.235 342.614 152.365 343.894 153.816C345.174 155.224 346.155 156.909 346.838 158.872C347.521 160.835 347.862 162.989 347.862 165.336V167.768H323.414V169.304C323.414 170.755 323.649 172.099 324.118 173.336C324.587 174.573 325.249 175.64 326.102 176.536C326.998 177.432 328.065 178.136 329.302 178.648C330.582 179.117 331.99 179.352 333.526 179.352C335.745 179.352 337.665 178.84 339.286 177.816C340.907 176.792 342.145 175.384 342.998 173.592L346.774 176.152C345.793 178.371 344.15 180.205 341.846 181.656C339.585 183.064 336.811 183.768 333.526 183.768ZM333.206 153.432C331.798 153.432 330.497 153.688 329.302 154.2C328.107 154.712 327.062 155.416 326.166 156.312C325.313 157.208 324.63 158.275 324.118 159.512C323.649 160.707 323.414 162.029 323.414 163.48V163.928H342.358V163.224C342.358 161.773 342.123 160.451 341.654 159.256C341.227 158.061 340.609 157.037 339.798 156.184C339.03 155.288 338.07 154.605 336.918 154.136C335.809 153.667 334.571 153.432 333.206 153.432ZM406.052 183L392.804 138.328H398.5L404.836 160.664L409.636 177.56H409.956L414.756 160.664L421.092 138.328H426.596L413.348 183H406.052ZM448.651 183.768C446.262 183.768 444.107 183.363 442.187 182.552C440.31 181.741 438.688 180.589 437.323 179.096C436 177.56 434.976 175.747 434.251 173.656C433.526 171.523 433.163 169.155 433.163 166.552C433.163 163.907 433.526 161.517 434.251 159.384C435.019 157.251 436.064 155.437 437.387 153.944C438.71 152.408 440.288 151.235 442.123 150.424C444 149.613 446.07 149.208 448.331 149.208C450.55 149.208 452.555 149.613 454.347 150.424C456.182 151.235 457.739 152.365 459.019 153.816C460.299 155.224 461.28 156.909 461.963 158.872C462.646 160.835 462.987 162.989 462.987 165.336V167.768H438.539V169.304C438.539 170.755 438.774 172.099 439.243 173.336C439.712 174.573 440.374 175.64 441.227 176.536C442.123 177.432 443.19 178.136 444.427 178.648C445.707 179.117 447.115 179.352 448.651 179.352C450.87 179.352 452.79 178.84 454.411 177.816C456.032 176.792 457.27 175.384 458.123 173.592L461.899 176.152C460.918 178.371 459.275 180.205 456.971 181.656C454.71 183.064 451.936 183.768 448.651 183.768ZM448.331 153.432C446.923 153.432 445.622 153.688 444.427 154.2C443.232 154.712 442.187 155.416 441.291 156.312C440.438 157.208 439.755 158.275 439.243 159.512C438.774 160.707 438.539 162.029 438.539 163.48V163.928H457.483V163.224C457.483 161.773 457.248 160.451 456.779 159.256C456.352 158.061 455.734 157.037 454.923 156.184C454.155 155.288 453.195 154.605 452.043 154.136C450.934 153.667 449.696 153.432 448.331 153.432ZM472.178 178.648H481.842V154.328H472.178V149.976H486.962V158.296H487.282C487.965 155.693 489.245 153.667 491.122 152.216C493.042 150.723 495.474 149.976 498.418 149.976H503.026V155.096H496.818C493.874 155.096 491.485 155.949 489.65 157.656C487.858 159.363 486.962 161.603 486.962 164.376V178.648H499.762V183H472.178V178.648ZM526.873 142.68C525.38 142.68 524.334 142.381 523.737 141.784C523.14 141.144 522.841 140.355 522.841 139.416V138.392C522.841 137.453 523.14 136.685 523.737 136.088C524.334 135.448 525.38 135.128 526.873 135.128C528.366 135.128 529.412 135.448 530.009 136.088C530.606 136.685 530.905 137.453 530.905 138.392V139.416C530.905 140.355 530.606 141.144 530.009 141.784C529.412 142.381 528.366 142.68 526.873 142.68ZM512.409 178.648H524.313V154.328H512.409V149.976H529.433V178.648H540.569V183H512.409V178.648ZM549.312 178.648H560.448V154.328H548.672V149.976H560.448V143.192C560.448 140.973 561.024 139.16 562.176 137.752C563.371 136.344 565.227 135.64 567.744 135.64H578.816V139.992H565.568V149.976H578.816V154.328H565.568V178.648H577.344V183H549.312V178.648ZM603.623 142.68C602.13 142.68 601.084 142.381 600.487 141.784C599.89 141.144 599.591 140.355 599.591 139.416V138.392C599.591 137.453 599.89 136.685 600.487 136.088C601.084 135.448 602.13 135.128 603.623 135.128C605.116 135.128 606.162 135.448 606.759 136.088C607.356 136.685 607.655 137.453 607.655 138.392V139.416C607.655 140.355 607.356 141.144 606.759 141.784C606.162 142.381 605.116 142.68 603.623 142.68ZM589.159 178.648H601.063V154.328H589.159V149.976H606.183V178.648H617.319V183H589.159V178.648ZM641.102 183.768C638.713 183.768 636.579 183.363 634.702 182.552C632.867 181.699 631.31 180.525 630.03 179.032C628.75 177.539 627.769 175.725 627.086 173.592C626.446 171.459 626.126 169.091 626.126 166.488C626.126 163.885 626.467 161.517 627.15 159.384C627.833 157.251 628.814 155.437 630.094 153.944C631.374 152.408 632.931 151.235 634.766 150.424C636.601 149.613 638.691 149.208 641.038 149.208C644.238 149.208 646.841 149.912 648.846 151.32C650.851 152.728 652.323 154.563 653.262 156.824L649.166 159C648.569 157.293 647.566 155.971 646.158 155.032C644.793 154.093 643.086 153.624 641.038 153.624C639.545 153.624 638.201 153.88 637.006 154.392C635.854 154.861 634.873 155.544 634.062 156.44C633.251 157.336 632.633 158.403 632.206 159.64C631.822 160.877 631.63 162.221 631.63 163.672V169.304C631.63 170.755 631.822 172.099 632.206 173.336C632.633 174.573 633.251 175.64 634.062 176.536C634.873 177.432 635.875 178.136 637.07 178.648C638.265 179.117 639.63 179.352 641.166 179.352C643.385 179.352 645.219 178.84 646.67 177.816C648.121 176.792 649.273 175.384 650.126 173.592L653.774 176.088C652.793 178.307 651.257 180.141 649.166 181.592C647.118 183.043 644.43 183.768 641.102 183.768ZM690.805 183C688.8 183 687.37 182.488 686.517 181.464C685.664 180.44 685.13 179.16 684.917 177.624H684.597C683.872 179.544 682.698 181.059 681.077 182.168C679.498 183.235 677.365 183.768 674.677 183.768C671.221 183.768 668.469 182.872 666.421 181.08C664.373 179.288 663.349 176.835 663.349 173.72C663.349 170.648 664.458 168.28 666.677 166.616C668.938 164.952 672.565 164.12 677.557 164.12H684.597V160.856C684.597 158.424 683.914 156.611 682.549 155.416C681.184 154.179 679.242 153.56 676.725 153.56C674.506 153.56 672.693 154.008 671.285 154.904C669.877 155.757 668.746 156.931 667.893 158.424L664.437 155.864C664.864 155.011 665.44 154.179 666.165 153.368C666.89 152.557 667.786 151.853 668.853 151.256C669.92 150.616 671.136 150.125 672.501 149.784C673.866 149.4 675.381 149.208 677.045 149.208C680.928 149.208 684 150.189 686.261 152.152C688.565 154.115 689.717 156.845 689.717 160.344V178.52H694.325V183H690.805ZM675.573 179.48C676.896 179.48 678.09 179.331 679.157 179.032C680.266 178.691 681.226 178.264 682.037 177.752C682.848 177.197 683.466 176.557 683.893 175.832C684.362 175.064 684.597 174.253 684.597 173.4V167.96H677.557C674.485 167.96 672.245 168.387 670.837 169.24C669.429 170.093 668.725 171.331 668.725 172.952V174.296C668.725 176.003 669.322 177.304 670.517 178.2C671.754 179.053 673.44 179.48 675.573 179.48ZM718.3 183C715.783 183 713.927 182.296 712.732 180.888C711.58 179.48 711.004 177.667 711.004 175.448V154.328H699.996V149.976H708.188C709.297 149.976 710.065 149.763 710.492 149.336C710.961 148.867 711.196 148.077 711.196 146.968V138.328H716.124V149.976H731.164V154.328H716.124V178.648H731.164V183H718.3ZM757.123 142.68C755.63 142.68 754.584 142.381 753.987 141.784C753.39 141.144 753.091 140.355 753.091 139.416V138.392C753.091 137.453 753.39 136.685 753.987 136.088C754.584 135.448 755.63 135.128 757.123 135.128C758.616 135.128 759.662 135.448 760.259 136.088C760.856 136.685 761.155 137.453 761.155 138.392V139.416C761.155 140.355 760.856 141.144 760.259 141.784C759.662 142.381 758.616 142.68 757.123 142.68ZM742.659 178.648H754.563V154.328H742.659V149.976H759.683V178.648H770.819V183H742.659V178.648ZM793.45 183.768C791.146 183.768 789.055 183.363 787.178 182.552C785.343 181.741 783.765 180.589 782.442 179.096C781.162 177.56 780.181 175.747 779.498 173.656C778.815 171.523 778.474 169.133 778.474 166.488C778.474 163.885 778.815 161.517 779.498 159.384C780.181 157.251 781.162 155.437 782.442 153.944C783.765 152.408 785.343 151.235 787.178 150.424C789.055 149.613 791.146 149.208 793.45 149.208C795.754 149.208 797.823 149.613 799.658 150.424C801.535 151.235 803.114 152.408 804.394 153.944C805.717 155.437 806.719 157.251 807.402 159.384C808.085 161.517 808.426 163.885 808.426 166.488C808.426 169.133 808.085 171.523 807.402 173.656C806.719 175.747 805.717 177.56 804.394 179.096C803.114 180.589 801.535 181.741 799.658 182.552C797.823 183.363 795.754 183.768 793.45 183.768ZM793.45 179.352C796.309 179.352 798.613 178.499 800.362 176.792C802.111 175.085 802.986 172.44 802.986 168.856V164.12C802.986 160.536 802.111 157.891 800.362 156.184C798.613 154.477 796.309 153.624 793.45 153.624C790.591 153.624 788.287 154.477 786.538 156.184C784.789 157.891 783.914 160.536 783.914 164.12V168.856C783.914 172.44 784.789 175.085 786.538 176.792C788.287 178.499 790.591 179.352 793.45 179.352ZM818.897 183V149.976H824.017V155.352H824.273C824.614 154.541 825.041 153.773 825.553 153.048C826.065 152.28 826.684 151.619 827.409 151.064C828.177 150.509 829.073 150.061 830.097 149.72C831.121 149.379 832.316 149.208 833.681 149.208C837.137 149.208 839.91 150.317 842.001 152.536C844.092 154.712 845.137 157.805 845.137 161.816V183H840.017V162.712C840.017 159.683 839.356 157.443 838.033 155.992C836.71 154.499 834.769 153.752 832.209 153.752C831.185 153.752 830.182 153.88 829.201 154.136C828.22 154.392 827.345 154.776 826.577 155.288C825.809 155.8 825.19 156.461 824.721 157.272C824.252 158.083 824.017 159.021 824.017 160.088V183H818.897Z" fill="#0000EE"/>
</svg>
